<svg width="191" height="20" viewBox="0 0 191 20" fill="none" xmlns="http://www.w3.org/2000/svg">
<path d="M0.665649 19.4062V0.451782H4.67904V8.35296L14.1593 0.451782H19.9311L8.59075 9.38173L21.3247 19.4062H14.9189L4.67904 11.0684V19.4062H0.665649Z" fill="white"/>
<path d="M25.7688 19.4062V15.8474H41.0867V12.7252H30.0095C28.3527 12.7252 27.2342 12.4082 26.66 11.7682C26.0679 11.1462 25.7688 9.97387 25.7688 8.2453V0.451782H29.7523V9.4535H41.0867V0.451782H45.0702V14.9203C45.0702 16.6429 44.7831 17.8212 44.2089 18.4552C43.5928 19.0892 42.4624 19.4062 40.8235 19.4062H25.7688Z" fill="white"/>
<path d="M61.0939 0.451782L70.9689 19.4062H66.4291L59.4969 5.70927L52.8996 19.4062H48.9161L58.3425 0.451782H61.0939Z" fill="white"/>
<path d="M79.4861 0.451782V7.83858H90.1984C91.5502 7.83858 92.549 8.13166 93.183 8.71781C93.7811 9.30995 94.0802 10.237 94.0802 11.5051V15.7278C94.0802 17.0257 93.7811 17.9707 93.183 18.5629C92.537 19.1251 91.5382 19.4062 90.1984 19.4062H75.5803V0.451782H79.492H79.4861ZM89.8635 15.8115C90.1087 15.5783 90.2283 15.1895 90.2283 14.6392V12.6116C90.2283 12.0613 90.1087 11.6725 89.8635 11.4393C89.6003 11.218 89.1218 11.1103 88.4399 11.1103H79.4861V16.1405H88.4399C89.1337 16.1405 89.6063 16.0328 89.8635 15.8175V15.8115Z" fill="white"/>
<path d="M108.698 3.83117V19.4062H104.715V3.83117H96.8615V0.451782H116.593V3.83117H108.698Z" fill="white"/>
<path d="M121.301 19.4062V15.8474H136.619V12.7252H125.541C123.885 12.7252 122.766 12.4082 122.192 11.7682C121.6 11.1462 121.301 9.97387 121.301 8.2453V0.451782H125.284V9.4535H136.619V0.451782H140.602V14.9203C140.602 16.6429 140.315 17.8212 139.741 18.4552C139.125 19.0892 137.994 19.4062 136.355 19.4062H121.301Z" fill="white"/>
<path d="M146.709 19.4062V0.451782H161.333C162.679 0.451782 163.672 0.73888 164.324 1.30111C164.922 1.88129 165.221 2.82034 165.221 4.12425V8.34698C165.221 9.62098 164.922 10.5481 164.324 11.1342C163.69 11.7264 162.697 12.0194 161.339 12.0194H150.627V19.4003H146.715L146.709 19.4062ZM159.58 3.7235H150.621V8.7537H159.58C160.28 8.7537 160.753 8.64604 161.004 8.42473C161.249 8.20343 161.369 7.81465 161.369 7.25242V5.23675C161.369 4.67452 161.249 4.28574 161.004 4.06443C160.753 3.84313 160.274 3.73547 159.58 3.73547V3.7235Z" fill="white"/>
<path d="M166.943 19.4062L176.591 0.451782H180.437L190.252 19.4062H185.778L183.721 15.2553H172.877L170.885 19.4062H166.943ZM174.599 11.84H182.094L178.379 4.13023L174.599 11.84Z" fill="white"/>
</svg>
